<svg width="79" height="64" viewBox="0 0 79 64" fill="none" xmlns="http://www.w3.org/2000/svg">
<path d="M13.7759 32.3113C14.5872 32.1926 15.3889 32.5811 15.7984 33.2915L22.4405 44.8156C22.8505 45.527 22.784 46.4169 22.2728 47.0595L14.8283 56.4165C13.9503 57.5201 12.2366 57.3928 11.5313 56.1716L0.474062 37.0268C-0.232687 35.8031 0.518027 34.2523 1.91624 34.0476L13.7759 32.3113ZM61 55.9946C59.8954 55.9946 59 55.0991 59 53.9946V46.4558C59 45.6647 59.4763 44.9629 60.153 44.553C63.0496 42.7987 65 39.6483 65 35.9946C65 34.5646 64.6853 33.1976 64.1251 31.9824C63.6089 30.8628 63.8465 29.4304 64.9112 28.8088L70.76 25.3946C74.8 23.0346 76.2 17.8746 73.84 13.8346L68.32 4.23456C67.1945 2.2946 65.3479 0.878072 63.1826 0.293658C61.0173 -0.290755 58.7087 0.00431275 56.76 1.11456L24.24 19.9946C20.44 22.1146 19.12 26.9946 21.32 30.8346L27.32 41.2346C29.52 45.0346 34.44 46.3546 38.24 44.1546L43.8029 40.9589C44.8434 40.3611 46.1637 40.8236 46.8648 41.7975C47.6598 42.9018 48.6734 43.8426 49.844 44.5525C50.5218 44.9635 51 45.6661 51 46.4588V55.9946C51 60.3946 54.6 63.9946 59 63.9946H77C78.1046 63.9946 79 63.0991 79 61.9946V57.9946C79 56.89 78.1046 55.9946 77 55.9946H61Z" fill="#42356B"/>
</svg>
