<svg width="100" height="100" viewBox="0 0 100 100" fill="none" xmlns="http://www.w3.org/2000/svg">
<g filter="url(#filter0_d_85_646)">
<path d="M79.1668 54.1667C80.5834 54.1667 81.9584 54.3333 83.3334 54.5417V41.6667C83.3334 39.4565 82.4554 37.3369 80.8926 35.7741C79.3298 34.2113 77.2102 33.3333 75.0001 33.3333H70.8334V25C70.8334 13.5 61.5001 4.16667 50.0001 4.16667C38.5001 4.16667 29.1667 13.5 29.1667 25V33.3333H25.0001C22.7899 33.3333 20.6703 34.2113 19.1075 35.7741C17.5447 37.3369 16.6667 39.4565 16.6667 41.6667V83.3333C16.6667 87.9583 20.3751 91.6667 25.0001 91.6667H57.5418C55.4168 88 54.1668 83.75 54.1668 79.1667C54.1668 65.375 65.3751 54.1667 79.1668 54.1667ZM37.5001 25C37.5001 18.0833 43.0834 12.5 50.0001 12.5C56.9168 12.5 62.5001 18.0833 62.5001 25V33.3333H37.5001V25ZM50.0001 70.8333C48.3519 70.8333 46.7407 70.3446 45.3703 69.4289C43.9999 68.5132 42.9318 67.2117 42.3011 65.689C41.6704 64.1663 41.5053 62.4908 41.8269 60.8742C42.1484 59.2577 42.9421 57.7729 44.1075 56.6074C45.273 55.442 46.7578 54.6483 48.3743 54.3268C49.9908 54.0052 51.6664 54.1703 53.1891 54.801C54.7118 55.4317 56.0133 56.4998 56.929 57.8702C57.8447 59.2407 58.3334 60.8518 58.3334 62.5C58.3334 67.125 54.6251 70.8333 50.0001 70.8333ZM93.7501 71.875L73.9584 91.6667L62.5001 79.1667L67.3334 74.3333L73.9584 80.9583L88.9168 66L93.7501 71.875Z" fill="white" fill-opacity="0.6" shape-rendering="crispEdges"/>
</g>
<defs>
<filter id="filter0_d_85_646" x="0.666748" y="-3.83333" width="109.083" height="119.5" filterUnits="userSpaceOnUse" color-interpolation-filters="sRGB">
<feFlood flood-opacity="0" result="BackgroundImageFix"/>
<feColorMatrix in="SourceAlpha" type="matrix" values="0 0 0 0 0 0 0 0 0 0 0 0 0 0 0 0 0 0 127 0" result="hardAlpha"/>
<feOffset dy="8"/>
<feGaussianBlur stdDeviation="8"/>
<feComposite in2="hardAlpha" operator="out"/>
<feColorMatrix type="matrix" values="0 0 0 0 0.258824 0 0 0 0 0.207843 0 0 0 0 0.419608 0 0 0 0.1 0"/>
<feBlend mode="multiply" in2="BackgroundImageFix" result="effect1_dropShadow_85_646"/>
<feBlend mode="normal" in="SourceGraphic" in2="effect1_dropShadow_85_646" result="shape"/>
</filter>
</defs>
</svg>
