<svg width="100" height="90" viewBox="0 0 100 90" fill="none" xmlns="http://www.w3.org/2000/svg">
<g filter="url(#filter0_d_85_640)">
<path d="M86.6665 60.8333V54.5833C86.6665 48.75 80.8332 44.1667 74.9998 44.1667C69.1665 44.1667 63.3332 48.75 63.3332 54.5833V60.8333C60.8332 60.8333 58.3332 63.3333 58.3332 65.8333V80.4167C58.3332 83.3333 60.8332 85.8333 63.3332 85.8333H86.2498C89.1665 85.8333 91.6665 83.3333 91.6665 80.8333V66.25C91.6665 63.3333 89.1665 60.8333 86.6665 60.8333ZM81.2498 60.8333H68.7498V54.5833C68.7498 51.25 71.6665 49.1667 74.9998 49.1667C78.3332 49.1667 81.2498 51.25 81.2498 54.5833V60.8333ZM62.4998 40C58.7498 42.9167 56.2498 46.6667 55.4165 51.25C53.7498 52.0833 52.0832 52.5 49.9998 52.5C42.9165 52.5 37.4998 47.0833 37.4998 40C37.4998 32.9167 42.9165 27.5 49.9998 27.5C57.0832 27.5 62.4998 32.9167 62.4998 40ZM49.9998 71.25C29.1665 71.25 11.2498 58.3333 4.1665 40C11.2498 21.6667 29.1665 8.75 49.9998 8.75C70.8332 8.75 88.7498 21.6667 95.8332 40C94.9998 42.0833 93.7498 44.1667 92.9165 46.25C91.2498 43.3333 89.1665 40.8333 86.2498 39.1667C79.1665 25.4167 65.4165 17.0833 49.9998 17.0833C34.1665 17.0833 19.9998 25.8333 13.3332 40C20.4165 54.1667 34.5832 62.9167 49.9998 62.9167H50.4165C49.9998 63.75 49.9998 65 49.9998 65.8333V71.25Z" fill="white" fill-opacity="0.6" shape-rendering="crispEdges"/>
</g>
<defs>
<filter id="filter0_d_85_640" x="-11.8335" y="0.75" width="123.667" height="109.083" filterUnits="userSpaceOnUse" color-interpolation-filters="sRGB">
<feFlood flood-opacity="0" result="BackgroundImageFix"/>
<feColorMatrix in="SourceAlpha" type="matrix" values="0 0 0 0 0 0 0 0 0 0 0 0 0 0 0 0 0 0 127 0" result="hardAlpha"/>
<feOffset dy="8"/>
<feGaussianBlur stdDeviation="8"/>
<feComposite in2="hardAlpha" operator="out"/>
<feColorMatrix type="matrix" values="0 0 0 0 0.258824 0 0 0 0 0.207843 0 0 0 0 0.419608 0 0 0 0.1 0"/>
<feBlend mode="multiply" in2="BackgroundImageFix" result="effect1_dropShadow_85_640"/>
<feBlend mode="normal" in="SourceGraphic" in2="effect1_dropShadow_85_640" result="shape"/>
</filter>
</defs>
</svg>
