<svg width="80" height="80" viewBox="0 0 80 80" fill="none" xmlns="http://www.w3.org/2000/svg">
<path fill-rule="evenodd" clip-rule="evenodd" d="M0.461247 40.8697C0.159046 40.3175 0.159046 39.6825 0.461247 39.1303C3.15826 34.2018 17.5455 10 40 10C62.4545 10 76.8417 34.2018 79.5387 39.1303C79.841 39.6825 79.841 40.3175 79.5387 40.8697C76.8417 45.7982 62.4545 70 40 70C17.5455 70 3.15826 45.7982 0.461247 40.8697ZM9.05 40.65C8.80269 40.2531 8.81052 39.7455 9.06 39.35C10.69 36.8 13.09 33.415 16.16 30.07C22.47 23.175 30.6 17.5 40 17.5C49.39 17.5 57.53 23.175 63.85 30.07C66.3665 32.8382 68.6516 35.8073 70.6827 38.9474C71.097 39.588 71.0958 40.4113 70.6801 41.051C68.641 44.1879 66.3538 47.1571 63.84 49.93C57.53 56.825 49.4 62.5 40 62.5C30.61 62.5 22.47 56.825 16.15 49.93C13.5234 47.0445 11.1481 43.9399 9.05 40.65ZM55 40C54.9991 43.1576 54.0017 46.2344 52.1499 48.7921C50.2982 51.3498 47.6865 53.2578 44.687 54.2445C41.6874 55.2311 38.4531 55.246 35.4446 54.2871C32.4361 53.3281 29.8069 51.4442 27.9317 48.9037C26.0564 46.3632 25.0307 43.2957 25.0007 40.1383C24.9706 36.9808 25.9378 33.8943 27.7644 31.3186C29.5909 28.7429 32.1837 26.8093 35.1735 25.7933C37.0122 25.1684 38.9433 24.9102 40.8598 25.0202C42.12 25.0925 42.3731 26.8817 41.5961 27.8766C40.8495 28.8325 40.3459 29.9553 40.1285 31.1486C39.9111 32.3419 39.9863 33.5701 40.3478 34.7279C40.7092 35.8857 41.3461 36.9386 42.2037 37.7963C43.0614 38.6539 44.1143 39.2908 45.2721 39.6522C46.4299 40.0137 47.6582 40.0889 48.8514 39.8715C50.0447 39.6541 51.1675 39.1505 52.1234 38.4039C53.1173 37.6277 54.9052 37.8818 54.9762 39.1408C54.9923 39.4267 55.0003 39.7132 55 40Z" fill="#42356B"/>
</svg>
