<svg width="55" height="73" viewBox="0 0 55 73" fill="none" xmlns="http://www.w3.org/2000/svg">
<path d="M39.6825 33.9711C39.2431 33.6369 39.1576 33.0098 39.4916 32.5702L47.9766 21.4005C48.3107 20.9607 48.938 20.875 49.3778 21.2091L54.3986 25.0233C54.8383 25.3573 54.924 25.9845 54.5901 26.4243L46.1054 37.599C45.7712 38.0391 45.1434 38.1248 44.7036 37.7902L39.6825 33.9711ZM36.1063 31.2912C36.5462 31.625 37.1734 31.5391 37.5073 31.0993L46.6065 19.1141C46.9405 18.6742 46.8546 18.0468 46.4146 17.7128L41.0644 13.6526C40.6245 13.3188 39.9973 13.4047 39.6634 13.8446L30.5642 25.8297C30.2302 26.2697 30.3162 26.8971 30.7562 27.231L36.1063 31.2912ZM32.1159 16.5418C32.4179 16.6891 32.5433 17.0532 32.396 17.3552C32.0737 18.016 32.9822 18.5753 33.427 17.9899L37.8745 12.138C38.2087 11.6982 38.1231 11.0708 37.6834 10.7367L32.7169 6.96301C32.2771 6.62885 31.6497 6.71453 31.3156 7.15437L27.0655 12.7496C26.6842 13.2516 26.8568 13.9769 27.4235 14.2533L32.1159 16.5418ZM28.8579 6.30402C29.1919 5.86423 29.1061 5.23699 28.6664 4.90295L23.0626 0.646034C22.6228 0.31191 21.9953 0.39767 21.6613 0.837572L16.5222 7.60531C16.1409 8.10736 16.3137 8.83262 16.8803 9.10891L23.3287 12.2532C23.7577 12.4624 24.2748 12.3393 24.5634 11.9592L28.8579 6.30402ZM46.2803 41.4412C46.1096 41.6665 45.7895 41.7126 45.5622 41.5447L24.6356 26.0816C24.5644 26.029 24.4764 26.0044 24.3882 26.0125L23.6904 26.0765C23.505 26.0935 23.4639 26.3462 23.6345 26.421C23.6754 26.439 23.7082 26.4715 23.7265 26.5123L32.7413 46.5882C33.0149 47.1975 32.6258 47.8986 31.964 47.9887L31.4812 48.0545C31.0418 48.1143 30.6155 47.8777 30.4339 47.4731L21.9973 28.6781C21.8962 28.4529 21.7154 28.273 21.4897 28.1731L16.1831 25.8249C15.8636 25.6835 15.641 25.3856 15.5961 25.0391L15.2912 22.6891C15.1886 21.8975 16.009 21.3106 16.725 21.6634L20.8794 23.7106C21.0446 23.792 21.2292 23.8262 21.4126 23.8094L26.1818 23.3727C26.5298 23.3408 26.8359 23.1295 26.9892 22.8155L28.9266 18.8461C29.1689 18.3497 28.9628 17.7508 28.4663 17.5087L13.0128 9.97142C12.5745 9.75765 12.0459 9.89118 11.7618 10.2875L0.207077 26.4007C-0.0348765 26.7381 -0.0431667 27.19 0.186246 27.536L15.1887 50.1666C15.3266 50.3746 15.3817 50.6266 15.3433 50.8732L12.0804 71.8046C11.9859 72.411 12.4548 72.9586 13.0685 72.9586H39.6152C40.1674 72.9586 40.6152 72.5109 40.6152 71.9586V54.8169C40.6152 54.6069 40.6813 54.4023 40.8041 54.232L45.9402 47.1107C46.0194 47.0008 46.0755 46.876 46.1051 46.7438L47.1954 41.8655C47.3163 41.3243 46.6151 40.9992 46.2803 41.4412Z" fill="#42356B"/>
</svg>
