<svg width="40" height="40" viewBox="0 0 40 40" fill="none" xmlns="http://www.w3.org/2000/svg">
<path opacity="0.5" d="M34.8933 12.6067C34.8807 11.4462 34.6681 10.2966 34.265 9.20833C33.972 8.41318 33.5044 7.69386 32.8967 7.10333C32.306 6.49608 31.5867 6.02906 30.7917 5.73667C29.7032 5.33406 28.5538 5.12097 27.3933 5.10667C25.4633 5.02 24.885 5 20 5C15.1167 5 14.535 5.01667 12.6067 5.10667C11.4462 5.11931 10.2966 5.33187 9.20833 5.735C8.41292 6.02747 7.6935 6.49512 7.10333 7.10333C6.49705 7.69541 6.0302 8.41504 5.73667 9.21C5.33431 10.298 5.12123 11.4468 5.10667 12.6067C5.02 14.5383 5 15.1167 5 20.0017C5 24.8867 5.01667 25.4667 5.10667 27.395C5.11985 28.5556 5.33297 29.7052 5.73667 30.7933C6.02833 31.5867 6.49667 32.3067 7.105 32.895C7.69572 33.5029 8.41495 33.971 9.21 34.265C10.2967 34.6683 11.4467 34.8817 12.6067 34.8933C14.535 34.9833 15.1167 35 20 35C24.8833 35 25.4667 34.9833 27.3933 34.8933C28.5538 34.8807 29.7034 34.6682 30.7917 34.265C31.5809 33.9608 32.2977 33.4948 32.8959 32.8969C33.4941 32.299 33.9605 31.5824 34.265 30.7933C34.6674 29.7043 34.8799 28.5543 34.8933 27.3933C34.9833 25.4667 35 24.8867 35 20C35 15.1133 34.9833 14.5367 34.8933 12.6067Z" fill="black"/>
<path d="M29.6549 12.6967C29.449 12.1626 29.1335 11.6775 28.7288 11.2728C28.324 10.868 27.839 10.5526 27.3049 10.3467C26.5682 10.0743 25.7903 9.93003 25.0049 9.92001C23.6982 9.86001 23.3049 9.84668 19.9999 9.84668C16.6949 9.84668 16.3032 9.86001 14.9999 9.92001C14.2145 9.92844 13.4364 10.0722 12.6999 10.345C11.6182 10.7617 10.7666 11.615 10.3499 12.695C10.0766 13.4333 9.93323 14.2117 9.92323 14.995C9.86323 16.3017 9.85156 16.6933 9.85156 20C9.85156 23.3067 9.86323 23.7 9.92323 25.005C9.93156 25.79 10.0766 26.5683 10.3482 27.305C10.5542 27.8391 10.8697 28.3241 11.2744 28.7288C11.6792 29.1335 12.1642 29.449 12.6982 29.655C13.4366 29.9267 14.2149 30.0717 14.9982 30.08C16.3032 30.14 16.6949 30.1517 20.0016 30.1517C23.3082 30.1517 23.7016 30.14 25.0066 30.08C25.792 30.0709 26.5701 29.9266 27.3066 29.6533C27.8406 29.4474 28.3256 29.1319 28.7303 28.7271C29.1351 28.3224 29.4506 27.8374 29.6566 27.3033C29.9299 26.5683 30.0732 25.79 30.0832 25.0033C30.1432 23.6983 30.1549 23.3067 30.1549 20C30.1549 16.6933 30.1432 16.3017 30.0832 14.9967C30.0742 14.2112 29.9298 13.4331 29.6566 12.6967H29.6549ZM19.9999 26.3583C19.1649 26.3583 18.3381 26.1939 17.5667 25.8743C16.7952 25.5548 16.0943 25.0865 15.5039 24.496C14.9134 23.9056 14.4451 23.2047 14.1256 22.4332C13.806 21.6618 13.6416 20.835 13.6416 20C13.6416 19.165 13.806 18.3382 14.1256 17.5668C14.4451 16.7954 14.9134 16.0944 15.5039 15.504C16.0943 14.9136 16.7952 14.4452 17.5667 14.1257C18.3381 13.8061 19.1649 13.6417 19.9999 13.6417C21.6862 13.6417 23.3035 14.3116 24.4959 15.504C25.6883 16.6964 26.3582 18.3137 26.3582 20C26.3582 21.6863 25.6883 23.3036 24.4959 24.496C23.3035 25.6885 21.6862 26.3583 19.9999 26.3583ZM26.6099 14.875C26.2244 14.8621 25.8591 14.6999 25.591 14.4227C25.3229 14.1454 25.173 13.7749 25.173 13.3892C25.173 13.0035 25.3229 12.6329 25.591 12.3557C25.8591 12.0785 26.2244 11.9163 26.6099 11.9033C26.9954 11.9151 27.3629 12.0763 27.6319 12.3528C27.9008 12.6293 28.0517 12.9995 28.0528 13.3852C28.0539 13.7708 27.905 14.1419 27.6377 14.4199C27.3703 14.6979 27.0053 14.8611 26.6199 14.875H26.6099Z" fill="black"/>
<path d="M19.9999 15.8717C19.1834 15.8717 18.3852 16.1138 17.7063 16.5675C17.0274 17.0211 16.4983 17.6658 16.1858 18.4202C15.8734 19.1745 15.7916 20.0046 15.9509 20.8054C16.1102 21.6063 16.5034 22.3419 17.0807 22.9192C17.6581 23.4966 18.3937 23.8898 19.1945 24.049C19.9953 24.2083 20.8254 24.1266 21.5798 23.8141C22.3341 23.5017 22.9789 22.9725 23.4325 22.2936C23.8861 21.6147 24.1283 20.8165 24.1283 20C24.1283 18.9054 23.6935 17.8556 22.9197 17.0815C22.1458 16.3073 21.0962 15.8721 20.0016 15.8717H19.9999Z" fill="black"/>
<path d="M36.5502 11.7834C36.5352 10.4947 36.2984 9.2183 35.8502 8.01004C35.5241 7.12665 35.0041 6.3276 34.3285 5.67171C33.6727 4.99593 32.8736 4.47593 31.9902 4.15004C30.781 3.7028 29.5042 3.46604 28.2152 3.45004C26.0702 3.35671 25.4285 3.33337 20.0002 3.33337C14.5752 3.33337 13.9302 3.35337 11.7868 3.45004C10.4977 3.46567 9.22085 3.70245 8.01183 4.15004C7.12795 4.47512 6.3287 4.99522 5.6735 5.67171C4.99903 6.32857 4.47924 7.12733 4.15183 8.01004C3.70465 9.21917 3.46789 10.496 3.45183 11.785C3.35683 13.93 3.3335 14.5734 3.3335 20.0017C3.3335 25.43 3.3535 26.0734 3.45183 28.2167C3.4685 29.505 3.7035 30.7834 4.15183 31.9917C4.47683 32.875 4.99683 33.675 5.67183 34.3284C6.32812 35.0035 7.12705 35.5234 8.01016 35.85C9.21893 36.2985 10.496 36.5353 11.7852 36.55C13.9285 36.6484 14.5735 36.6667 20.0002 36.6667C25.4285 36.6667 26.0718 36.6467 28.2168 36.55C29.5055 36.5351 30.7819 36.2983 31.9902 35.85C32.8672 35.512 33.6638 34.994 34.3286 34.3295C34.9934 33.665 35.5117 32.8686 35.8502 31.9917C36.2968 30.7817 36.5335 29.505 36.5502 28.2167C36.6468 26.0717 36.6668 25.4267 36.6668 20C36.6668 14.5717 36.6468 13.93 36.5502 11.7834ZM32.3085 25.105C32.2888 26.1326 32.0943 27.1494 31.7335 28.1117C31.4153 28.9343 30.9288 29.6813 30.3051 30.305C29.6814 30.9286 28.9344 31.4152 28.1118 31.7334C27.1499 32.0936 26.1338 32.288 25.1068 32.3084C23.7852 32.37 23.3635 32.3834 20.0002 32.3834C16.6368 32.3834 16.2168 32.3684 14.8952 32.3084C13.8682 32.2879 12.8521 32.0935 11.8902 31.7334C11.0672 31.4154 10.3198 30.929 9.69585 30.3054C9.07189 29.6817 8.58514 28.9345 8.26683 28.1117C7.90645 27.1492 7.71202 26.1326 7.69183 25.105C7.6335 23.785 7.61683 23.3634 7.61683 20C7.61683 16.6367 7.63183 16.215 7.69183 14.895C7.71202 13.8675 7.90645 12.8509 8.26683 11.8884C8.58505 11.0655 9.07177 10.3183 9.69574 9.69461C10.3197 9.07092 11.0672 8.58455 11.8902 8.26671C12.8521 7.90651 13.8682 7.71209 14.8952 7.69171C16.2168 7.63004 16.6402 7.61671 20.0018 7.61671C23.3635 7.61671 23.7852 7.63171 25.1068 7.69171C26.1344 7.71164 27.1511 7.90608 28.1135 8.26671C28.9358 8.58512 29.6825 9.07173 30.3058 9.69537C30.9292 10.319 31.4155 11.066 31.7335 11.8884C32.0952 12.8517 32.2885 13.8667 32.3085 14.895C32.3685 16.215 32.3835 16.6367 32.3835 20C32.3835 23.3634 32.3685 23.7834 32.3085 25.105Z" fill="black"/>
</svg>
