<svg width="40" height="40" viewBox="0 0 40 40" fill="none" xmlns="http://www.w3.org/2000/svg">
<path d="M20.0002 36.6667C17.7224 36.6667 15.5696 36.2289 13.5418 35.3534C11.5141 34.4778 9.74294 33.2834 8.2285 31.77C6.71516 30.2567 5.52072 28.4862 4.64516 26.4584C3.76961 24.4306 3.33239 22.2778 3.3335 20C3.3335 17.6945 3.77128 15.5345 4.64683 13.52C5.52239 11.5056 6.71683 9.74226 8.23017 8.23004C9.7435 6.7156 11.5135 5.52115 13.5402 4.64671C15.5668 3.77226 17.7202 3.33449 20.0002 3.33337C22.3057 3.33337 24.4657 3.77115 26.4802 4.64671C28.4946 5.52226 30.2579 6.71671 31.7702 8.23004C33.2846 9.74337 34.4791 11.5073 35.3535 13.5217C36.2279 15.5362 36.6657 17.6956 36.6668 20C36.6668 22.2778 36.2291 24.4306 35.3535 26.4584C34.4779 28.4862 33.2835 30.2573 31.7702 31.7717C30.2568 33.285 28.4929 34.4795 26.4785 35.355C24.4641 36.2306 22.3046 36.6678 20.0002 36.6667ZM20.0002 33.25C20.7224 32.25 21.3474 31.2084 21.8752 30.125C22.4029 29.0417 22.8335 27.8889 23.1668 26.6667H16.8335C17.1668 27.8889 17.5974 29.0417 18.1252 30.125C18.6529 31.2084 19.2779 32.25 20.0002 33.25ZM15.6668 32.5834C15.1668 31.6667 14.7291 30.715 14.3535 29.7284C13.9779 28.7417 13.6657 27.7212 13.4168 26.6667H8.50016C9.30572 28.0556 10.3129 29.2639 11.5218 30.2917C12.7307 31.3195 14.1124 32.0834 15.6668 32.5834ZM24.3335 32.5834C25.8891 32.0834 27.2713 31.3195 28.4802 30.2917C29.6891 29.2639 30.6957 28.0556 31.5002 26.6667H26.5835C26.3335 27.7223 26.0213 28.7434 25.6468 29.73C25.2724 30.7167 24.8346 31.6678 24.3335 32.5834ZM7.0835 23.3334H12.7502C12.6668 22.7778 12.6041 22.2289 12.5618 21.6867C12.5196 21.1445 12.4991 20.5823 12.5002 20C12.5002 19.4167 12.5213 18.8545 12.5635 18.3134C12.6057 17.7723 12.6679 17.2234 12.7502 16.6667H7.0835C6.94461 17.2223 6.84016 17.7712 6.77016 18.3134C6.70016 18.8556 6.66572 19.4178 6.66683 20C6.66683 20.5834 6.70183 21.1456 6.77183 21.6867C6.84183 22.2278 6.94572 22.7767 7.0835 23.3334ZM16.0835 23.3334H23.9168C24.0002 22.7778 24.0629 22.2289 24.1052 21.6867C24.1474 21.1445 24.1679 20.5823 24.1668 20C24.1668 19.4167 24.1457 18.8545 24.1035 18.3134C24.0613 17.7723 23.9991 17.2234 23.9168 16.6667H16.0835C16.0002 17.2223 15.9374 17.7712 15.8952 18.3134C15.8529 18.8556 15.8324 19.4178 15.8335 20C15.8335 20.5834 15.8546 21.1456 15.8968 21.6867C15.9391 22.2278 16.0013 22.7767 16.0835 23.3334ZM27.2502 23.3334H32.9168C33.0557 22.7778 33.1602 22.2289 33.2302 21.6867C33.3002 21.1445 33.3346 20.5823 33.3335 20C33.3335 19.4167 33.2985 18.8545 33.2285 18.3134C33.1585 17.7723 33.0546 17.2234 32.9168 16.6667H27.2502C27.3335 17.2223 27.3963 17.7712 27.4385 18.3134C27.4807 18.8556 27.5013 19.4178 27.5002 20C27.5002 20.5834 27.4791 21.1456 27.4368 21.6867C27.3946 22.2278 27.3324 22.7767 27.2502 23.3334ZM26.5835 13.3334H31.5002C30.6946 11.9445 29.6879 10.7362 28.4802 9.70837C27.2724 8.6806 25.8902 7.91671 24.3335 7.41671C24.8335 8.33337 25.2713 9.28504 25.6468 10.2717C26.0224 11.2584 26.3346 12.2789 26.5835 13.3334ZM16.8335 13.3334H23.1668C22.8335 12.1112 22.4029 10.9584 21.8752 9.87504C21.3474 8.79171 20.7224 7.75004 20.0002 6.75004C19.2779 7.75004 18.6529 8.79171 18.1252 9.87504C17.5974 10.9584 17.1668 12.1112 16.8335 13.3334ZM8.50016 13.3334H13.4168C13.6668 12.2778 13.9796 11.2567 14.3552 10.27C14.7307 9.28337 15.1679 8.33226 15.6668 7.41671C14.1113 7.91671 12.7291 8.6806 11.5202 9.70837C10.3113 10.7362 9.30461 11.9445 8.50016 13.3334Z" fill="black"/>
</svg>
