<svg width="40" height="40" viewBox="0 0 40 40" fill="none" xmlns="http://www.w3.org/2000/svg">
<path d="M20 36.6667L19.5833 31.6667H19.1667C15.2222 31.6667 11.875 30.2917 9.125 27.5417C6.375 24.7917 5 21.4445 5 17.5C5 13.5556 6.375 10.2084 9.125 7.45837C11.875 4.70837 15.2222 3.33337 19.1667 3.33337C21.1389 3.33337 22.9794 3.70115 24.6883 4.43671C26.3972 5.17226 27.8972 6.18615 29.1883 7.47837C30.4794 8.7706 31.4928 10.2706 32.2283 11.9784C32.9639 13.6862 33.3322 15.5267 33.3333 17.5C33.3333 19.5834 32.9928 21.5834 32.3117 23.5C31.6306 25.4167 30.7 27.1945 29.52 28.8334C28.34 30.4723 26.9372 31.9584 25.3117 33.2917C23.6861 34.625 21.9156 35.75 20 36.6667ZM19.125 26.625C19.5972 26.625 20 26.4584 20.3333 26.125C20.6667 25.7917 20.8333 25.3889 20.8333 24.9167C20.8333 24.4445 20.6667 24.0417 20.3333 23.7084C20 23.375 19.5972 23.2084 19.125 23.2084C18.6528 23.2084 18.25 23.375 17.9167 23.7084C17.5833 24.0417 17.4167 24.4445 17.4167 24.9167C17.4167 25.3889 17.5833 25.7917 17.9167 26.125C18.25 26.4584 18.6528 26.625 19.125 26.625ZM17.9167 21.3334H20.4167C20.4167 20.5 20.5 19.9167 20.6667 19.5834C20.8333 19.25 21.3611 18.6389 22.25 17.75C22.75 17.25 23.1667 16.7084 23.5 16.125C23.8333 15.5417 24 14.9167 24 14.25C24 12.8334 23.5206 11.7706 22.5617 11.0617C21.6028 10.3528 20.4711 9.99893 19.1667 10C17.9444 10 16.9167 10.3406 16.0833 11.0217C15.25 11.7028 14.6667 12.5289 14.3333 13.5L16.6667 14.4167C16.8056 13.9445 17.0694 13.4789 17.4583 13.02C17.8472 12.5612 18.4167 12.3323 19.1667 12.3334C19.9167 12.3334 20.4789 12.5417 20.8533 12.9584C21.2278 13.375 21.4156 13.8334 21.4167 14.3334C21.4167 14.8056 21.2778 15.2295 21 15.605C20.7222 15.9806 20.3889 16.3623 20 16.75C19.0278 17.5834 18.4372 18.2434 18.2283 18.73C18.0194 19.2167 17.9156 20.0845 17.9167 21.3334Z" fill="black"/>
</svg>
