<svg width="78" height="19" viewBox="0 0 78 19" fill="none" xmlns="http://www.w3.org/2000/svg">
<path d="M0.66 15V0.999999H3.34L9.3 10.88H7.88L13.74 0.999999H16.4L16.44 15H13.4L13.38 5.66H13.94L9.26 13.52H7.8L3.02 5.66H3.7V15H0.66ZM22.6616 11.8L22.4816 8.06L29.1816 0.999999H32.7816L26.7416 7.5L24.9416 9.42L22.6616 11.8ZM19.7616 15V0.999999H22.9816V15H19.7616ZM29.3416 15L24.3616 8.9L26.4816 6.6L33.1216 15H29.3416ZM40.2303 18.88V0.159999H43.0903V18.88H40.2303ZM50.2262 15L56.4663 0.999999H59.6663L65.9263 15H62.5263L57.4063 2.64H58.6863L53.5463 15H50.2262ZM53.3462 12L54.2063 9.54H61.4063L62.2863 12H53.3462ZM67.3788 15V0.999999H70.6188V12.36H77.6388V15H67.3788Z" fill="#42356B"/>
</svg>
