<svg width="93" height="23" viewBox="0 0 93 23" fill="none" xmlns="http://www.w3.org/2000/svg">
<path d="M-0.0079999 18V1.2H3.208L10.36 13.056H8.656L15.688 1.2H18.88L18.928 18H15.28L15.256 6.792H15.928L10.312 16.224H8.56L2.824 6.792H3.64V18H-0.0079999ZM26.3939 14.16L26.1779 9.672L34.2179 1.2H38.5379L31.2899 9L29.1299 11.304L26.3939 14.16ZM22.9139 18V1.2H26.7779V18H22.9139ZM34.4099 18L28.4339 10.68L30.9779 7.92L38.9459 18H34.4099ZM47.4764 22.656V0.191999H50.9084V22.656H47.4764ZM59.4715 18L66.9595 1.2H70.7995L78.3115 18H74.2315L68.0875 3.168H69.6235L63.4555 18H59.4715ZM63.2155 14.4L64.2475 11.448H72.8875L73.9435 14.4H63.2155ZM80.0545 18V1.2H83.9425V14.832H92.3665V18H80.0545Z" fill="white"/>
</svg>
