<svg width="80" height="80" viewBox="0 0 80 80" fill="none" xmlns="http://www.w3.org/2000/svg">
<path d="M76 44C75.7368 48.7914 74.328 53.4497 71.892 57.584C69.456 61.7183 66.0637 65.208 62 67.76L40.9724 79.459C40.3678 79.7954 39.6322 79.7954 39.0276 79.459L18 67.76C13.9363 65.208 10.544 61.7183 8.108 57.584C5.67196 53.4497 4.26322 48.7914 4 44V14C4 12.8954 4.89639 12.0034 6.00037 11.9672C18.2112 11.5666 29.501 7.51241 38.7835 0.891027C39.5103 0.372637 40.4888 0.373942 41.2143 0.893954C50.4973 7.54698 61.7879 11.5702 73.9996 11.9675C75.1036 12.0034 76 12.8954 76 14V44ZM40 48.3514C40 48.3382 40.0149 48.3304 40.0257 48.338L46.9525 53.1772C48.5081 54.264 50.5612 52.776 50.0125 50.9594L47.9625 44.1726C47.7206 43.3717 48.0028 42.5048 48.6699 41.9997L54.3428 37.7051C55.8536 36.5614 55.075 34.1536 53.1806 34.111L46.0675 33.9512C45.2331 33.9324 44.4981 33.3975 44.2236 32.6094L41.8888 25.9042C41.2656 24.1144 38.7344 24.1144 38.1112 25.9041L35.7764 32.6094C35.5019 33.3975 34.7669 33.9324 33.9325 33.9512L26.8245 34.1109C24.9295 34.1535 24.1513 36.5625 25.6631 37.7057L31.288 41.9591C31.9562 42.4644 32.2387 43.3325 31.9958 44.1342L29.9314 50.9488C29.3834 52.7576 31.4184 54.247 32.9769 53.1779L39.9929 48.3649C39.9973 48.3618 40 48.3568 40 48.3514Z" fill="#42356B"/>
</svg>
