<svg width="68" height="67" viewBox="0 0 68 67" fill="none" xmlns="http://www.w3.org/2000/svg">
<path d="M57.5001 66.0002L49.1643 57.7356C48.3823 56.9603 47.1206 56.963 46.3419 57.7417L41.831 62.2526C41.0499 63.0337 39.7836 63.0337 39.0025 62.2526L38.0834 61.3335C36.8056 60.0557 36.1667 58.4724 36.1667 56.5835C36.1667 54.6946 36.8056 53.1113 38.0834 51.8335L52.1667 37.7502C53.4445 36.4724 55.0279 35.8335 56.9167 35.8335C58.8056 35.8335 60.389 36.4724 61.6667 37.7502L62.5859 38.6693C63.3669 39.4503 63.3669 40.7167 62.5859 41.4977L58.0749 46.0087C57.2962 46.7874 57.2935 48.049 58.0688 48.831L66.3334 57.1668C67.0001 57.8335 67.3334 58.6113 67.3334 59.5002C67.3334 60.389 67.0001 61.1668 66.3334 61.8335L62.1667 66.0002C61.5001 66.6668 60.7223 67.0002 59.8334 67.0002C58.9445 67.0002 58.1667 66.6668 57.5001 66.0002ZM67.3334 12.8384C67.3334 13.3688 67.1227 13.8775 66.7476 14.2526L29.8774 51.1229C29.6761 51.3241 29.6945 51.6557 29.9167 51.8335C31.1945 53.1113 31.8334 54.6946 31.8334 56.5835C31.8334 58.4724 31.1945 60.0557 29.9167 61.3335L28.9976 62.2526C28.2166 63.0337 26.9502 63.0337 26.1692 62.2526L21.6582 57.7417C20.8796 56.963 19.6179 56.9603 18.8359 57.7356L10.5001 66.0002C9.83341 66.6668 9.05564 67.0002 8.16675 67.0002C7.27786 67.0002 6.50008 66.6668 5.83341 66.0002L1.66675 61.8335C1.00008 61.1668 0.666748 60.389 0.666748 59.5002C0.666748 58.6113 1.00008 57.8335 1.66675 57.1668L9.93132 48.831C10.7066 48.049 10.7039 46.7873 9.92526 46.0087L5.41429 41.4977C4.63324 40.7167 4.63325 39.4503 5.4143 38.6693L6.33341 37.7502C7.61119 36.4724 9.19453 35.8335 11.0834 35.8335C12.9723 35.8335 14.5556 36.4724 15.8334 37.7502C16.0112 37.9724 16.3428 37.9908 16.5441 37.7895L53.4143 0.919282C53.7894 0.544209 54.2981 0.333496 54.8285 0.333496H65.3334C66.438 0.333496 67.3334 1.22893 67.3334 2.3335V12.8384ZM18.581 28.7526C17.7999 29.5337 16.5336 29.5337 15.7525 28.7526L1.25253 14.2526C0.877461 13.8775 0.666748 13.3688 0.666748 12.8384V2.33349C0.666748 1.22892 1.56218 0.333496 2.66675 0.333496H13.1717C13.7021 0.333496 14.2108 0.54421 14.5859 0.919283L29.0859 15.4193C29.8669 16.2003 29.8669 17.4667 29.0859 18.2477L18.581 28.7526Z" fill="#42356B"/>
</svg>
