<svg width="45" height="20" viewBox="0 0 45 20" fill="none" xmlns="http://www.w3.org/2000/svg">
<path d="M22.6449 0H22.8952C25.2072 0.00533855 36.922 0.0587244 40.0806 0.596139C41.0355 0.760154 41.9056 1.07985 42.604 1.52328C43.3025 1.96671 43.8047 2.51835 44.0606 3.12305C44.3446 3.79927 44.5443 4.69437 44.6794 5.61794L44.7075 5.80301L44.7694 6.26568L44.7919 6.45075C44.9747 8.07723 44.9972 9.6005 45 9.93327V10.0667C44.9972 10.412 44.9719 12.0384 44.7694 13.7325L44.7469 13.9194L44.7215 14.1045C44.5809 15.1223 44.3728 16.1331 44.0606 16.8769C43.8055 17.4819 43.3035 18.0338 42.605 18.4773C41.9064 18.9208 41.0359 19.2403 40.0806 19.4039C36.8179 19.9591 24.4168 19.9982 22.6983 20H22.2989C21.4298 20 17.8352 19.9893 14.0662 19.9075L13.588 19.8968L13.3433 19.8897L12.8624 19.8772L12.3814 19.8648C9.25933 19.7776 6.28633 19.637 4.91656 19.4021C3.96163 19.2387 3.09131 18.9194 2.39281 18.4763C1.69431 18.0331 1.19214 17.4816 0.936621 16.8769C0.624414 16.1349 0.416276 15.1223 0.275642 14.1045L0.253141 13.9176L0.230639 13.7325C0.0918271 12.5267 0.0149068 11.3184 0 10.1094L0 9.89056C0.00562535 9.50796 0.0281268 8.18578 0.180011 6.72658L0.1997 6.54329L0.208138 6.45075L0.230639 6.26568L0.292518 5.80301L0.320645 5.61794C0.455654 4.69437 0.655353 3.79749 0.939434 3.12305C1.19453 2.5181 1.6965 1.96621 2.39503 1.5227C3.09356 1.0792 3.9641 0.759663 4.91937 0.596139C6.28914 0.364801 9.26214 0.22244 12.3842 0.133464L12.8624 0.121007L13.3461 0.11033L13.588 0.104992L14.069 0.0925352C16.7459 0.0380367 19.4238 0.00778159 22.102 0.0017796H22.6449V0ZM18.0011 5.71225V14.286L29.6934 10.0009L18.0011 5.71225Z" fill="black"/>
</svg>
